<svg xmlns="http://www.w3.org/2000/svg" viewBox="0 0 96 96" fill="none" role="img" aria-label="Drop CSV Viewer">
  <defs>
    <linearGradient id="tile" x1="0" y1="0" x2="0" y2="1">
      <stop offset="0" stop-color="#16C08B"/>
      <stop offset="1" stop-color="#0C9E6C"/>
    </linearGradient>
    <mask id="grid">
      <path d="M48 16 C60 36 74 47 74 60 a26 26 0 1 1 -52 0 C22 47 36 36 48 16 Z" fill="#fff"/>
      <g stroke="#000" stroke-width="3.8" stroke-linecap="round">
        <line x1="48" y1="50" x2="48" y2="82"/>
        <line x1="31" y1="59" x2="65" y2="59"/>
        <line x1="31" y1="71" x2="65" y2="71"/>
      </g>
    </mask>
  </defs>
  <rect x="2" y="2" width="92" height="92" rx="22" fill="url(#tile)"/>
  <rect x="2.5" y="2.5" width="91" height="91" rx="21.5" fill="none" stroke="#ffffff" stroke-opacity="0.14"/>
  <path d="M48 16 C60 36 74 47 74 60 a26 26 0 1 1 -52 0 C22 47 36 36 48 16 Z" fill="#ffffff" mask="url(#grid)"/>
</svg>
